<svg width="30" height="30" viewBox="0 0 30 30" fill="none" xmlns="http://www.w3.org/2000/svg">
<rect width="30" height="30" rx="5" fill="white"/>
<path d="M8.25 14C7.69772 14 7.25 14.4477 7.25 15C7.25 15.5523 7.69772 16 8.25 16L8.25 15L8.25 14ZM22.4571 15.7071C22.8476 15.3166 22.8476 14.6834 22.4571 14.2929L16.0931 7.92893C15.7026 7.53841 15.0695 7.53841 14.6789 7.92893C14.2884 8.31946 14.2884 8.95262 14.6789 9.34315L20.3358 15L14.6789 20.6569C14.2884 21.0474 14.2884 21.6805 14.6789 22.0711C15.0695 22.4616 15.7026 22.4616 16.0931 22.0711L22.4571 15.7071ZM8.25 15L8.25 16L21.75 16L21.75 15L21.75 14L8.25 14L8.25 15Z" fill="#DC2316"/>
</svg>
